<svg data-v-32b368da="" xmlns="http://www.w3.org/2000/svg" width="23" height="22" viewBox="0 0 23 22" fill="none"><path d="M6.2666 10.5C5.99046 10.5 5.7666 10.7239 5.7666 11C5.7666 11.2761 5.99046 11.5 6.2666 11.5V10.5ZM15.6202 11.3536C15.8154 11.1583 15.8154 10.8417 15.6202 10.6464L12.4382 7.46447C12.2429 7.2692 11.9263 7.2692 11.7311 7.46447C11.5358 7.65973 11.5358 7.97631 11.7311 8.17157L14.5595 11L11.7311 13.8284C11.5358 14.0237 11.5358 14.3403 11.7311 14.5355C11.9263 14.7308 12.2429 14.7308 12.4382 14.5355L15.6202 11.3536ZM6.2666 11V11.5H15.2666V11V10.5H6.2666V11Z" fill="#231F20"></path><path d="M19.9166 5.98334C19.5676 5.38145 18.8716 5.172 17.9561 5.3587C17.9418 5.29153 17.917 5.22489 17.8805 5.16248C17.7498 4.93717 17.5081 4.81711 17.2649 4.8298C17.1168 4.07135 16.81 3.27059 16.3467 2.42858C16.3007 2.34501 16.2119 2.2937 16.1161 2.29635C15.1409 2.31962 14.283 2.4619 13.5453 2.72212C13.5315 2.68245 13.5141 2.64331 13.4924 2.60576C13.3379 2.33919 13.028 2.21966 12.744 2.2937C12.4399 1.46227 11.9211 0.998417 11.2473 1C10.5619 1.00106 10.0378 1.48448 9.73947 2.34554C9.57869 2.30798 9.40469 2.32861 9.25078 2.41747C9.12015 2.4931 9.02496 2.60682 8.97048 2.7364C8.229 2.47512 7.3664 2.3339 6.38428 2.31433C6.28855 2.31275 6.20023 2.36458 6.15422 2.44762C5.68087 3.31343 5.37412 4.13588 5.23344 4.91231C5.09011 4.89221 4.93938 4.9176 4.80452 4.99588C4.65432 5.08315 4.55119 5.22013 4.50253 5.37352C3.61243 5.2085 2.93706 5.42429 2.59752 6.01614C2.2638 6.59634 2.40501 7.27281 2.96668 7.94558C2.71757 8.15026 2.64512 8.51098 2.81224 8.7987C2.83657 8.84048 2.8646 8.87856 2.89581 8.91294C2.32409 9.41752 1.7931 10.076 1.30389 10.8858C1.25417 10.9677 1.25417 11.0698 1.30389 11.1518C1.79786 11.9621 2.33308 12.6195 2.90903 13.1225C2.74085 13.3319 2.70858 13.6318 2.85138 13.8783C2.8921 13.9481 2.94393 14.0079 3.00264 14.0565C2.42299 14.7409 2.27543 15.429 2.61603 16.0161C2.9635 16.6154 3.65316 16.8259 4.56071 16.645C4.57499 16.7143 4.59985 16.782 4.63687 16.8465C4.77015 17.0766 5.01978 17.1972 5.26888 17.1781C5.41802 17.9339 5.72371 18.7326 6.18595 19.5714C6.23196 19.655 6.32081 19.7063 6.41654 19.7037C7.38544 19.6809 8.23693 19.5408 8.97101 19.2837C8.98476 19.3244 9.00275 19.3646 9.02549 19.4032C9.18309 19.6751 9.502 19.7936 9.79024 19.7105C10.0949 20.5388 10.6126 21.0011 11.2848 21C11.9671 20.9989 12.4896 20.5203 12.789 19.6661C12.9466 19.7005 13.1169 19.6788 13.2671 19.5915C13.4019 19.5132 13.4987 19.3948 13.5527 19.2604C14.2963 19.5238 15.162 19.6661 16.1484 19.6857C16.2436 19.6878 16.3324 19.6365 16.3785 19.5524C16.8492 18.6903 17.1554 17.8721 17.2971 17.0983C17.4367 17.1152 17.5822 17.0893 17.7133 17.0131C17.8672 16.9237 17.972 16.7825 18.019 16.6244C18.9149 16.7931 19.594 16.5778 19.9357 15.9839C20.2699 15.4031 20.1282 14.7261 19.5649 14.0528C19.8035 13.8466 19.8701 13.4933 19.7056 13.2103C19.6818 13.1696 19.6543 13.132 19.6242 13.0982C20.2012 12.592 20.7364 11.9303 21.2293 11.1142C21.279 11.0323 21.279 10.9297 21.2293 10.8482C20.7343 10.0363 20.1975 9.37732 19.6205 8.8738C19.7797 8.66489 19.8077 8.3724 19.6675 8.13069C19.6279 8.06247 19.5776 8.00429 19.521 7.95616C20.1097 7.26699 20.2609 6.57466 19.9182 5.98334H19.9166Z" fill="#3BB3E3"></path></svg>
