<svg data-v-32b368da="" xmlns="http://www.w3.org/2000/svg" width="23" height="22" viewBox="0 0 23 22" fill="none"><path d="M5.80078 10.5C5.52464 10.5 5.30078 10.7239 5.30078 11C5.30078 11.2761 5.52464 11.5 5.80078 11.5V10.5ZM15.1543 11.3536C15.3496 11.1583 15.3496 10.8417 15.1543 10.6464L11.9724 7.46447C11.7771 7.2692 11.4605 7.2692 11.2652 7.46447C11.07 7.65973 11.07 7.97631 11.2652 8.17157L14.0937 11L11.2652 13.8284C11.07 14.0237 11.07 14.3403 11.2652 14.5355C11.4605 14.7308 11.7771 14.7308 11.9724 14.5355L15.1543 11.3536ZM5.80078 11V11.5H14.8008V11V10.5H5.80078V11Z" fill="#231F20"></path><path d="M1.34392 6.96626C1.64953 7.47985 1.8138 8.04996 2.0042 8.60941C2.07034 8.80407 2.14074 8.99714 2.21914 9.18486C1.88793 9.39712 1.61592 9.70911 1.45378 10.1C1.06337 11.0408 1.44579 12.109 2.30875 12.6007C2.14448 12.9591 2.02394 13.3378 1.88793 13.71C1.72793 14.149 1.53485 14.5756 1.34925 15.0049C1.29858 15.1217 1.30872 15.1489 1.43139 15.1991C1.9034 15.3927 2.37702 15.5825 2.84103 15.7948C3.16051 15.9414 3.47305 16.1068 3.8016 16.2273C3.54346 17.1819 4.02721 18.2027 4.96484 18.592C5.35472 18.7536 5.76646 18.7824 6.15048 18.6998C6.20434 18.8299 6.26248 18.9589 6.32275 19.0869C6.60276 19.6811 6.93397 20.2533 7.10197 20.8954C7.12864 20.9962 7.19051 21.0037 7.27478 20.9589C7.41239 20.8853 7.54732 20.8032 7.69239 20.7482C8.15268 20.5744 8.61616 20.4096 9.07911 20.2442C9.21725 20.1952 9.35378 20.1434 9.48872 20.0869C9.701 20.4154 10.0114 20.6858 10.4002 20.8469C11.3394 21.2367 12.4051 20.8565 12.8979 19.9973C13.219 20.1445 13.5561 20.2592 13.891 20.3792C14.3225 20.5333 14.7486 20.7034 15.1684 20.8874C15.4415 21.0074 15.4201 21.0186 15.5348 20.7461C15.7545 20.2234 15.9855 19.7051 16.2244 19.1909C16.3311 18.9621 16.4351 18.7323 16.5215 18.4971C17.4778 18.759 18.5024 18.2752 18.8928 17.3355C19.0549 16.9451 19.0832 16.5329 19.0005 16.1489C19.192 16.0684 19.3808 15.9809 19.568 15.8913C20.0965 15.6375 20.6118 15.3532 21.1851 15.2044C21.2934 15.1767 21.295 15.1175 21.2544 15.0225C21.0715 14.5975 20.8752 14.1767 20.7216 13.7404C20.6123 13.4295 20.5067 13.117 20.3808 12.8162C20.7126 12.604 20.9856 12.292 21.1478 11.9005C21.5377 10.9608 21.1568 9.89417 20.296 9.40192C20.4598 9.04513 20.5814 8.66915 20.7158 8.29796C20.8731 7.8633 21.0614 7.43931 21.2464 7.0148C21.3057 6.8788 21.3089 6.84413 21.1611 6.80254C20.615 6.64894 20.1157 6.38815 19.6112 6.13802C19.3451 6.00629 19.0773 5.87617 18.7989 5.77537C19.0581 4.8202 18.5744 3.79837 17.6362 3.40904C17.2463 3.24745 16.8351 3.21865 16.4516 3.30078C16.4394 3.27091 16.4266 3.24052 16.4138 3.21065C16.1113 2.50241 15.6911 1.8459 15.4959 1.09072C15.474 1.00486 15.4068 1.00166 15.338 1.04219C14.8276 1.34244 14.2633 1.50831 13.7081 1.69657C13.5081 1.7643 13.3086 1.83523 13.1139 1.91576C12.9016 1.58564 12.5907 1.31471 12.2008 1.15312C11.2605 0.76273 10.1933 1.14458 9.701 2.00589C9.42205 1.87843 9.13138 1.77496 8.84123 1.66937C8.37028 1.49817 7.9004 1.32218 7.44065 1.12272C7.16118 1.00166 7.18464 0.985655 7.06677 1.26458C6.8465 1.7867 6.61449 2.30455 6.37608 2.8192C6.27155 3.04532 6.16914 3.27145 6.08381 3.50344C5.12591 3.23892 4.09921 3.72264 3.70826 4.66394C3.54612 5.05539 3.51732 5.46871 3.60159 5.85323C3.58186 5.86123 3.56159 5.86977 3.54185 5.8783C2.82397 6.18176 2.16048 6.61054 1.39618 6.8084C1.31138 6.83027 1.30231 6.89693 1.34338 6.96573L1.34392 6.96626Z" fill="#E65300"></path></svg>
