<svg data-v-32b368da="" xmlns="http://www.w3.org/2000/svg" width="23" height="22" viewBox="0 0 23 22" fill="none"><g clip-path="url(#clip0_1611_28009)"><path d="M6.86621 10.5C6.59007 10.5 6.36621 10.7239 6.36621 11C6.36621 11.2761 6.59007 11.5 6.86621 11.5V10.5ZM16.2198 11.3536C16.415 11.1583 16.415 10.8417 16.2198 10.6464L13.0378 7.46447C12.8425 7.2692 12.5259 7.2692 12.3307 7.46447C12.1354 7.65973 12.1354 7.97631 12.3307 8.17157L15.1591 11L12.3307 13.8284C12.1354 14.0237 12.1354 14.3403 12.3307 14.5355C12.5259 14.7308 12.8425 14.7308 13.0378 14.5355L16.2198 11.3536ZM6.86621 11V11.5H15.8662V11V10.5H6.86621V11Z" fill="#231F20"></path><path d="M21.1689 9.80268C20.8761 9.46562 20.5716 9.14509 20.2073 8.8955C20.2254 8.79844 20.2361 8.6987 20.2372 8.59631C20.2409 7.98352 19.9124 7.447 19.4212 7.15527C19.4244 7.14247 19.4287 7.12967 19.4319 7.11634C19.5684 6.54622 19.5092 5.96757 19.4873 5.38998C19.4713 4.95799 19.4873 4.52493 19.4969 4.09241C19.4996 3.97508 19.4815 3.95481 19.3588 3.95481C18.8868 3.95321 18.4143 3.95641 17.9428 3.93614C17.4746 3.91588 17.0058 3.85668 16.5413 3.94681C16.4602 3.96281 16.3791 3.98148 16.2986 4.00174C16.0149 3.49935 15.4778 3.15856 14.8597 3.15483C14.7621 3.1543 14.6661 3.16283 14.5728 3.17883C14.361 2.86257 14.0917 2.59057 13.8085 2.33031C13.3611 1.91859 12.8773 1.5442 12.5094 1.05194C12.4512 0.974611 12.3958 0.989544 12.3387 1.05781C12.2464 1.16874 12.1595 1.2866 12.0544 1.3842C11.7211 1.69406 11.3808 1.99699 11.0417 2.30045C10.751 2.56018 10.4763 2.8343 10.2587 3.15536C10.1617 3.13723 10.0625 3.12656 9.96061 3.12603C9.35049 3.1223 8.8161 3.44762 8.52384 3.93561C7.97986 3.80228 7.4252 3.84121 6.87055 3.86521C6.44709 3.88388 6.02203 3.88708 5.59858 3.87535C5.32231 3.86788 5.33725 3.85081 5.33405 4.12441C5.32818 4.6492 5.31165 5.17398 5.28552 5.69824C5.26312 6.15903 5.25138 6.61822 5.35965 7.06887C4.86099 7.35367 4.5234 7.88859 4.51967 8.50404C4.51913 8.60164 4.52767 8.69764 4.54367 8.79097C4.36874 8.9083 4.20767 9.0443 4.05408 9.19149C3.88715 9.35202 3.72875 9.52215 3.57302 9.69388C3.20876 10.096 2.86637 10.52 2.42691 10.8475C2.34425 10.9093 2.36291 10.9605 2.43065 11.0272C2.73571 11.328 3.05143 11.6197 3.33463 11.9402C3.70582 12.3589 4.06741 12.7866 4.52073 13.1013C4.50207 13.1989 4.4914 13.2997 4.49033 13.4026C4.4866 14.0143 4.81406 14.5508 5.30471 14.8426C5.16018 15.4234 5.21618 16.0137 5.23965 16.6041C5.25672 17.0319 5.24338 17.4612 5.23272 17.8889C5.22952 18.026 5.23912 18.0569 5.37991 18.0409C5.9015 17.9817 6.42042 18.0308 6.94041 18.0697C7.39533 18.1033 7.85239 18.13 8.30145 18.0329C8.34465 18.0238 8.38785 18.0126 8.43105 18.0014C8.71531 18.5017 9.25076 18.8409 9.86781 18.8446C9.96648 18.8451 10.063 18.8361 10.1569 18.8206C10.3131 19.0531 10.5003 19.2627 10.7025 19.4627C11.2091 19.9641 11.7984 20.38 12.2294 20.9592C12.2784 21.0248 12.3366 21.0046 12.3819 20.9459C12.7147 20.5102 13.1403 20.171 13.5504 19.8158C13.8885 19.5225 14.2176 19.219 14.4656 18.8441C14.5632 18.8627 14.6634 18.8734 14.7664 18.8739C15.377 18.8777 15.9119 18.5518 16.2042 18.0633C16.7055 18.1844 17.218 18.1593 17.7311 18.1396C18.1946 18.1214 18.6591 18.1086 19.122 18.1188C19.4036 18.1252 19.3897 18.147 19.3929 17.8665C19.3993 17.3417 19.4175 16.8169 19.442 16.2927C19.4639 15.8351 19.4751 15.3791 19.3673 14.9311C19.866 14.6463 20.2036 14.1114 20.2073 13.4959C20.2078 13.3973 20.1988 13.3007 20.1833 13.2069C20.4068 13.0559 20.61 12.8746 20.8036 12.681C21.3129 12.1701 21.7321 11.5712 22.3177 11.1344C22.3827 11.0859 22.3673 11.0256 22.3081 10.9813C21.867 10.648 21.5268 10.2165 21.1684 9.80375" fill="#C6A26D"></path></g><defs><clipPath id="clip0_1611_28009"><rect x="0.700195" width="22" height="22" rx="6" fill="white"></rect></clipPath></defs></svg>
