<svg data-v-32b368da="" xmlns="http://www.w3.org/2000/svg" width="22" height="22" viewBox="0 0 22 22" fill="none"><path d="M6.33398 10.5C6.05784 10.5 5.83398 10.7239 5.83398 11C5.83398 11.2761 6.05784 11.5 6.33398 11.5V10.5ZM15.6875 11.3536C15.8828 11.1583 15.8828 10.8417 15.6875 10.6464L12.5056 7.46447C12.3103 7.2692 11.9937 7.2692 11.7985 7.46447C11.6032 7.65973 11.6032 7.97631 11.7985 8.17157L14.6269 11L11.7985 13.8284C11.6032 14.0237 11.6032 14.3403 11.7985 14.5355C11.9937 14.7308 12.3103 14.7308 12.5056 14.5355L15.6875 11.3536ZM6.33398 11V11.5H15.334V11V10.5H6.33398V11Z" fill="#231F20"></path><path d="M7.78678 20.9724C8.30144 20.6668 8.87263 20.5026 9.43316 20.3117C10.1606 20.0643 10.8598 19.7694 11.3873 19.1471C11.4321 19.3961 11.5638 19.5443 11.8017 19.5587C12.0683 19.5753 12.2033 19.41 12.2646 19.186C12.455 19.3486 12.6342 19.5246 12.8358 19.6697C13.3515 20.0397 13.9552 20.2162 14.543 20.4312C14.9824 20.5917 15.4102 20.7852 15.8395 20.9713C15.9563 21.022 15.9835 21.0119 16.0342 20.8892C16.2288 20.4168 16.4187 19.9422 16.632 19.4777C16.8437 19.017 17.0949 18.5712 17.1941 18.0688C17.2571 17.7516 17.28 17.4263 17.3211 17.1068C17.5024 17.2268 17.7104 17.2396 17.8896 17.0573C18.0672 16.8765 18.0459 16.6701 17.912 16.4627C18.0229 16.4664 18.1221 16.4733 18.2208 16.4723C18.8336 16.4653 19.3883 16.2483 19.9317 15.9929C20.5269 15.7129 21.1002 15.3812 21.744 15.2138C21.8453 15.1871 21.8528 15.1253 21.8074 15.0405C21.7338 14.9024 21.6512 14.7675 21.5962 14.6224C21.4218 14.1617 21.2576 13.6972 21.0922 13.2328C20.9184 12.7438 20.7146 12.2697 20.3845 11.8628C20.2677 11.7189 20.1344 11.5887 20.0074 11.4512C20.2581 11.3776 20.3824 11.2539 20.3973 11.0555C20.4186 10.7755 20.2533 10.6369 20.0128 10.5686C20.1402 10.4326 20.2714 10.3089 20.3845 10.1703C20.8064 9.6525 21.009 9.02912 21.2298 8.41268C21.3845 7.98074 21.5552 7.55361 21.7397 7.13394C21.8602 6.86038 21.8714 6.88224 21.5984 6.76706C21.0752 6.54629 20.5557 6.31539 20.041 6.07543C19.5669 5.85413 19.0901 5.64456 18.5664 5.5779C18.3589 5.55124 18.1477 5.55284 17.9296 5.54111C18.0539 5.33954 18.0747 5.1401 17.904 4.96359C17.7237 4.77749 17.5147 4.79349 17.2923 4.93053C17.3499 4.38768 17.2352 3.89282 17.0443 3.41289C16.9515 3.17986 16.8459 2.95163 16.7371 2.725C16.4832 2.19548 16.1984 1.67929 16.0502 1.10497C16.0224 0.996721 15.9627 0.994588 15.8683 1.03512C15.4422 1.21802 15.0203 1.41479 14.5835 1.56784C13.7467 1.86113 12.9003 2.12669 12.2945 2.83965C12.1819 2.54636 12.0497 2.43224 11.8353 2.43704C11.6225 2.44184 11.4849 2.56502 11.4001 2.81885C11.2459 2.6802 11.0966 2.52823 10.9291 2.39971C10.3937 1.98697 9.75476 1.7966 9.13076 1.5705C8.69503 1.41266 8.27051 1.22389 7.84598 1.03831C7.70998 0.97859 7.67478 0.975924 7.63318 1.12364C7.47905 1.67075 7.21772 2.17041 6.96652 2.67594C6.74679 3.118 6.53346 3.56487 6.44706 4.05493C6.39799 4.33436 6.38733 4.62018 6.36013 4.89747C6.1244 4.77536 5.93933 4.78495 5.78787 4.9348C5.62627 5.09424 5.61507 5.27875 5.758 5.54324C5.13774 5.47872 4.57881 5.64349 4.03215 5.87599C3.32283 6.17835 2.66417 6.59908 1.90791 6.79425C1.82204 6.81612 1.81831 6.88331 1.85938 6.95263C2.15964 7.46402 2.3255 8.02927 2.5143 8.58599C2.6807 9.07605 2.8615 9.56131 3.17083 9.98311C3.31856 10.1847 3.49349 10.3665 3.65402 10.5548C3.40976 10.6193 3.2855 10.7483 3.2695 10.96C3.25296 11.1819 3.36443 11.3168 3.65936 11.4362C3.54949 11.5498 3.43056 11.6591 3.32709 11.7807C2.90896 12.2713 2.70097 12.8669 2.48497 13.4605C2.31324 13.9319 2.13671 14.4027 1.93671 14.8629C1.81511 15.1429 1.79911 15.1194 2.07857 15.2378C2.60177 15.4586 3.12016 15.6916 3.63536 15.9305C4.10522 16.1486 4.57828 16.3566 5.09721 16.4232C5.3084 16.4504 5.5228 16.4493 5.73667 16.4611C5.61293 16.6738 5.60547 16.8706 5.74627 17.013C5.82093 17.0882 5.93347 17.1522 6.0364 17.1655C6.14413 17.1794 6.2604 17.1271 6.37186 17.1042C6.36866 17.1698 6.36333 17.2487 6.36226 17.3281C6.35586 17.8363 6.50306 18.3093 6.69772 18.7706C7.00119 19.49 7.43052 20.1549 7.62838 20.9201C7.65025 21.0049 7.71691 21.014 7.78571 20.9735L7.78678 20.9724Z" fill="#811B48"></path></svg>
